<?xml version="1.0" encoding="utf-8"?>
<!-- Generator: Adobe Illustrator 17.0.0, SVG Export Plug-In . SVG Version: 6.00 Build 0)  -->
<!DOCTYPE svg PUBLIC "-//W3C//DTD SVG 1.1//EN" "http://www.w3.org/Graphics/SVG/1.1/DTD/svg11.dtd">
<svg version="1.1" id="Layer_1" xmlns="http://www.w3.org/2000/svg" xmlns:xlink="http://www.w3.org/1999/xlink" x="0px" y="0px"
	 width="42.833px" height="52.5px" viewBox="0 0 42.833 52.5" enable-background="new 0 0 42.833 52.5" xml:space="preserve">
<g>
	<g>
		<polygon fill="#FFFFFF" points="13.568,10.07 13.57,10.07 13.57,1.644 2.312,1.644 2.312,19.022 7.941,15.042 13.568,19.022 		"/>
		<rect x="6.434" y="20.896" fill="#FFFFFF" width="3.015" height="4.531"/>
		<g>
			<rect x="5.053" y="10.567" fill="#FFFFFF" width="5.909" height="0.938"/>
			<path fill="#FFFFFF" d="M11.572,6.09c-0.358,0-0.65,0.291-0.65,0.649c0,0.044,0.006,0.089,0.016,0.133L9.368,7.472L8.418,6.27
				c0.111-0.119,0.173-0.273,0.173-0.437c0-0.358-0.292-0.649-0.649-0.649c-0.358,0-0.65,0.291-0.65,0.649
				c0,0.17,0.065,0.328,0.183,0.449L6.578,7.471L4.945,6.866c0.008-0.043,0.014-0.085,0.014-0.127c0-0.358-0.292-0.649-0.65-0.649
				c-0.357,0-0.649,0.291-0.649,0.649c0,0.382,0.326,0.697,0.722,0.645L5.07,9.863h5.868l0.587-2.477
				c0.381,0.032,0.697-0.273,0.697-0.647C12.223,6.381,11.93,6.09,11.572,6.09z M5.678,9.063L5.344,7.867l1.515,0.562l1.097-1.456
				l1.15,1.456l1.486-0.568l-0.286,1.203H5.678z"/>
		</g>
		<path fill="#FFFFFF" d="M33.352,36.007L33.352,36.007l-0.002-0.003l-1.664-2.723c-0.074-0.121-0.154-0.234-0.232-0.351
			l-2.255-3.652h-0.01c1.039-0.494,1.991-1.065,2.847-1.725c1.211-0.933,2.231-1.992,3.064-3.181
			c0.832-1.188,1.459-2.481,1.881-3.881c0.422-1.399,0.634-2.885,0.634-4.462c0-2.064-0.357-3.974-1.066-5.728
			c-0.711-1.754-1.849-3.275-3.413-4.563c-1.566-1.286-3.586-2.292-6.063-3.014c-2.476-0.721-5.467-1.082-8.975-1.082h-2.561v8.426
			h2.561c2.909,0,5.057,0.599,6.444,1.798c1.388,1.199,2.082,2.864,2.082,4.996c0,1.065-0.155,2.059-0.467,2.98
			c-0.312,0.921-0.812,1.727-1.499,2.414c-0.688,0.688-1.57,1.227-2.646,1.615c-1.078,0.389-2.382,0.582-3.914,0.582h-4.529H2.312
			v25.711h11.256v-17.95h2.864c0.866,0,1.537,0.133,2.015,0.399c0.477,0.267,0.894,0.712,1.249,1.332l7.378,12.896l0,0l1.771,3.322
			h2.974h1.532h8.658L33.352,36.007z"/>
	</g>
</g>
</svg>
