<?xml version="1.0" encoding="utf-8"?>
<!-- Generator: Adobe Illustrator 17.0.0, SVG Export Plug-In . SVG Version: 6.00 Build 0)  -->
<!DOCTYPE svg PUBLIC "-//W3C//DTD SVG 1.1//EN" "http://www.w3.org/Graphics/SVG/1.1/DTD/svg11.dtd">
<svg version="1.1" id="Layer_1" xmlns="http://www.w3.org/2000/svg" xmlns:xlink="http://www.w3.org/1999/xlink" x="0px" y="0px"
	 width="122px" height="47px" viewBox="0 0 122 47" enable-background="new 0 0 122 47" xml:space="preserve">
<g>
	<path fill="#6EB251" d="M18.324,36.645c0,0.13-0.022,0.248-0.063,0.356c-0.041,0.106-0.1,0.198-0.175,0.274
		c-0.075,0.076-0.165,0.135-0.271,0.176s-0.222,0.063-0.35,0.063h-0.65v-1.74h0.65c0.128,0,0.244,0.021,0.35,0.063
		c0.105,0.042,0.195,0.101,0.271,0.177c0.075,0.077,0.134,0.168,0.175,0.275C18.302,36.396,18.324,36.515,18.324,36.645z
		 M18.082,36.645c0-0.107-0.014-0.202-0.043-0.287c-0.029-0.084-0.071-0.155-0.124-0.213c-0.054-0.059-0.118-0.103-0.194-0.134
		c-0.076-0.031-0.16-0.046-0.254-0.046h-0.414v1.358h0.414c0.094,0,0.178-0.016,0.254-0.046c0.076-0.031,0.141-0.075,0.194-0.133
		c0.053-0.058,0.095-0.129,0.124-0.213C18.068,36.847,18.082,36.752,18.082,36.645z"/>
	<path fill="#6EB251" d="M21.755,35.774v0.192h-0.836v0.578h0.677v0.184h-0.677v0.594h0.836v0.192h-1.072v-1.74H21.755z"/>
	<path fill="#6EB251" d="M25.025,36.046c-0.008,0.012-0.016,0.021-0.023,0.027c-0.008,0.006-0.02,0.009-0.031,0.009
		c-0.015,0-0.031-0.007-0.049-0.021c-0.018-0.014-0.041-0.029-0.068-0.046c-0.028-0.017-0.063-0.031-0.101-0.045
		c-0.039-0.014-0.087-0.021-0.143-0.021c-0.053,0-0.1,0.007-0.14,0.021c-0.04,0.014-0.074,0.034-0.101,0.058
		c-0.027,0.024-0.049,0.053-0.063,0.086c-0.014,0.033-0.02,0.068-0.02,0.106c0,0.049,0.012,0.089,0.035,0.121
		c0.023,0.032,0.056,0.059,0.095,0.082c0.04,0.023,0.084,0.042,0.134,0.059c0.049,0.017,0.1,0.034,0.152,0.052
		c0.053,0.018,0.104,0.038,0.153,0.06c0.05,0.022,0.095,0.05,0.134,0.084c0.039,0.034,0.07,0.076,0.095,0.125
		c0.023,0.049,0.036,0.11,0.036,0.182c0,0.076-0.014,0.147-0.039,0.214c-0.026,0.067-0.064,0.125-0.113,0.174
		c-0.051,0.049-0.111,0.088-0.184,0.116c-0.073,0.028-0.155,0.042-0.247,0.042c-0.112,0-0.216-0.02-0.308-0.061
		c-0.094-0.041-0.172-0.096-0.238-0.166l0.068-0.112c0.006-0.009,0.015-0.017,0.023-0.022c0.01-0.006,0.019-0.009,0.031-0.009
		c0.018,0,0.037,0.009,0.059,0.027c0.021,0.019,0.049,0.039,0.082,0.06c0.032,0.022,0.072,0.042,0.119,0.06
		c0.047,0.018,0.104,0.027,0.17,0.027c0.056,0,0.105-0.007,0.15-0.023c0.043-0.015,0.08-0.037,0.11-0.064
		c0.03-0.028,0.054-0.062,0.069-0.101c0.017-0.039,0.024-0.082,0.024-0.13c0-0.052-0.012-0.096-0.036-0.129
		c-0.024-0.034-0.055-0.062-0.094-0.084c-0.039-0.023-0.083-0.042-0.133-0.058c-0.05-0.016-0.101-0.032-0.153-0.048
		c-0.052-0.017-0.102-0.036-0.153-0.058c-0.049-0.021-0.094-0.05-0.132-0.085c-0.039-0.035-0.07-0.078-0.095-0.13
		c-0.023-0.053-0.035-0.117-0.035-0.194c0-0.061,0.012-0.121,0.035-0.179c0.024-0.057,0.059-0.108,0.104-0.153
		c0.046-0.044,0.102-0.08,0.168-0.106c0.067-0.027,0.145-0.041,0.231-0.041c0.098,0,0.185,0.016,0.266,0.047
		c0.08,0.03,0.15,0.075,0.211,0.133L25.025,36.046z"/>
	<path fill="#6EB251" d="M28.89,37.514h-0.182c-0.022,0-0.038-0.005-0.051-0.016c-0.014-0.011-0.023-0.024-0.029-0.04l-0.162-0.42
		h-0.781l-0.162,0.42c-0.006,0.015-0.016,0.028-0.029,0.039c-0.015,0.011-0.031,0.017-0.051,0.017H27.26l0.696-1.74h0.238
		L28.89,37.514z M27.751,36.868H28.4l-0.273-0.708c-0.018-0.043-0.035-0.098-0.052-0.164c-0.009,0.033-0.018,0.063-0.026,0.091
		c-0.008,0.028-0.017,0.052-0.024,0.073L27.751,36.868z"/>
	<path fill="#6EB251" d="M31.408,36.788v0.726h-0.234v-1.74h0.492c0.109,0,0.205,0.011,0.285,0.034
		c0.08,0.022,0.147,0.054,0.199,0.096c0.051,0.042,0.09,0.093,0.115,0.153c0.025,0.059,0.037,0.126,0.037,0.2
		c0,0.061-0.01,0.119-0.029,0.172c-0.019,0.054-0.047,0.101-0.084,0.144c-0.037,0.042-0.081,0.079-0.135,0.109
		c-0.053,0.03-0.113,0.052-0.18,0.067c0.029,0.017,0.055,0.042,0.077,0.075l0.508,0.69H32.25c-0.043,0-0.075-0.017-0.095-0.05
		l-0.451-0.622c-0.014-0.019-0.029-0.033-0.045-0.042c-0.017-0.008-0.041-0.013-0.073-0.013H31.408z M31.408,36.617h0.246
		c0.069,0,0.13-0.009,0.182-0.025c0.053-0.017,0.097-0.04,0.131-0.07c0.035-0.031,0.063-0.067,0.08-0.109
		c0.018-0.042,0.027-0.088,0.027-0.14c0-0.104-0.035-0.182-0.103-0.234c-0.068-0.053-0.17-0.079-0.305-0.079h-0.258V36.617z"/>
	<path fill="#6EB251" d="M35.011,36.788v0.726h-0.234v-1.74h0.491c0.11,0,0.206,0.011,0.286,0.034
		c0.08,0.022,0.147,0.054,0.197,0.096c0.053,0.042,0.092,0.093,0.116,0.153c0.025,0.059,0.038,0.126,0.038,0.2
		c0,0.061-0.01,0.119-0.029,0.172c-0.02,0.054-0.047,0.101-0.084,0.144c-0.037,0.042-0.082,0.079-0.135,0.109
		c-0.054,0.03-0.113,0.052-0.18,0.067c0.028,0.017,0.055,0.042,0.077,0.075l0.507,0.69h-0.209c-0.043,0-0.074-0.017-0.094-0.05
		l-0.452-0.622c-0.014-0.019-0.028-0.033-0.045-0.042c-0.017-0.008-0.04-0.013-0.073-0.013H35.011z M35.011,36.617h0.246
		c0.068,0,0.129-0.009,0.182-0.025c0.053-0.017,0.096-0.04,0.131-0.07c0.035-0.031,0.063-0.067,0.08-0.109
		c0.018-0.042,0.026-0.088,0.026-0.14c0-0.104-0.034-0.182-0.103-0.234c-0.068-0.053-0.17-0.079-0.306-0.079h-0.257V36.617z"/>
	<path fill="#6EB251" d="M39.916,36.645c0,0.13-0.021,0.25-0.063,0.359c-0.041,0.108-0.1,0.202-0.175,0.281
		c-0.075,0.079-0.165,0.14-0.271,0.183c-0.105,0.044-0.223,0.065-0.351,0.065c-0.128,0-0.245-0.021-0.351-0.065
		c-0.104-0.043-0.194-0.104-0.27-0.183c-0.076-0.079-0.135-0.172-0.176-0.281c-0.041-0.109-0.06-0.229-0.06-0.359
		c0-0.13,0.019-0.25,0.06-0.359c0.041-0.109,0.1-0.203,0.176-0.281c0.075-0.079,0.165-0.141,0.27-0.185
		c0.105-0.043,0.223-0.065,0.351-0.065c0.128,0,0.245,0.022,0.351,0.065c0.106,0.044,0.195,0.105,0.271,0.185
		c0.075,0.079,0.134,0.172,0.175,0.281C39.894,36.395,39.916,36.515,39.916,36.645z M39.673,36.645c0-0.107-0.014-0.203-0.043-0.288
		c-0.029-0.085-0.07-0.157-0.124-0.216c-0.054-0.059-0.118-0.104-0.194-0.135c-0.076-0.031-0.161-0.047-0.255-0.047
		c-0.093,0-0.178,0.016-0.254,0.047c-0.075,0.032-0.142,0.077-0.194,0.135c-0.055,0.059-0.096,0.131-0.125,0.216
		c-0.029,0.085-0.043,0.181-0.043,0.288c0,0.107,0.014,0.202,0.043,0.287c0.029,0.084,0.07,0.156,0.125,0.215
		c0.053,0.059,0.119,0.104,0.194,0.135c0.076,0.031,0.161,0.046,0.254,0.046c0.094,0,0.179-0.015,0.255-0.046
		c0.076-0.031,0.141-0.076,0.194-0.135c0.054-0.059,0.095-0.13,0.124-0.215C39.66,36.847,39.673,36.752,39.673,36.645z"/>
	<path fill="#6EB251" d="M42.511,37.316h0.754v0.198h-0.988v-1.74h0.234V37.316z"/>
	<path fill="#6EB251" d="M45.798,37.316h0.754v0.198h-0.988v-1.74h0.234V37.316z"/>
	<path fill="#6EB251" d="M50.282,37.514h-0.183c-0.021,0-0.037-0.005-0.05-0.016c-0.013-0.011-0.022-0.024-0.029-0.04l-0.163-0.42
		h-0.78l-0.163,0.42c-0.006,0.015-0.016,0.028-0.028,0.039c-0.015,0.011-0.031,0.017-0.052,0.017h-0.182l0.695-1.74h0.239
		L50.282,37.514z M49.142,36.868h0.649l-0.272-0.708c-0.018-0.043-0.035-0.098-0.053-0.164c-0.009,0.033-0.018,0.063-0.025,0.091
		c-0.01,0.028-0.018,0.052-0.025,0.073L49.142,36.868z"/>
	<path fill="#6EB251" d="M54.048,36.645c0,0.13-0.021,0.248-0.062,0.356c-0.041,0.106-0.099,0.198-0.175,0.274
		c-0.075,0.076-0.166,0.135-0.271,0.176c-0.105,0.042-0.222,0.063-0.35,0.063h-0.651v-1.74h0.651c0.128,0,0.244,0.021,0.35,0.063
		c0.104,0.042,0.195,0.101,0.271,0.177c0.076,0.077,0.134,0.168,0.175,0.275C54.028,36.396,54.048,36.515,54.048,36.645z
		 M53.807,36.645c0-0.107-0.015-0.202-0.044-0.287c-0.029-0.084-0.07-0.155-0.123-0.213c-0.055-0.059-0.118-0.103-0.194-0.134
		c-0.077-0.031-0.161-0.046-0.254-0.046h-0.414v1.358h0.414c0.093,0,0.177-0.016,0.254-0.046c0.076-0.031,0.14-0.075,0.194-0.133
		c0.053-0.058,0.094-0.129,0.123-0.213C53.792,36.847,53.807,36.752,53.807,36.645z"/>
	<path fill="#6EB251" d="M58.025,36.645c0,0.13-0.021,0.25-0.063,0.359c-0.041,0.108-0.1,0.202-0.175,0.281
		c-0.075,0.079-0.166,0.14-0.271,0.183c-0.106,0.044-0.223,0.065-0.352,0.065c-0.127,0-0.244-0.021-0.35-0.065
		c-0.105-0.043-0.194-0.104-0.27-0.183c-0.076-0.079-0.135-0.172-0.176-0.281c-0.041-0.109-0.062-0.229-0.062-0.359
		c0-0.13,0.021-0.25,0.062-0.359c0.041-0.109,0.1-0.203,0.176-0.281c0.075-0.079,0.165-0.141,0.27-0.185
		c0.105-0.043,0.223-0.065,0.35-0.065c0.129,0,0.245,0.022,0.352,0.065c0.104,0.044,0.195,0.105,0.271,0.185
		c0.075,0.079,0.134,0.172,0.175,0.281C58.003,36.395,58.025,36.515,58.025,36.645z M57.783,36.645c0-0.107-0.015-0.203-0.044-0.288
		c-0.028-0.085-0.069-0.157-0.124-0.216c-0.053-0.059-0.117-0.104-0.193-0.135c-0.076-0.031-0.161-0.047-0.256-0.047
		c-0.093,0-0.177,0.016-0.253,0.047c-0.076,0.032-0.142,0.077-0.195,0.135c-0.054,0.059-0.095,0.131-0.124,0.216
		c-0.029,0.085-0.044,0.181-0.044,0.288c0,0.107,0.015,0.202,0.044,0.287c0.029,0.084,0.07,0.156,0.124,0.215
		c0.054,0.059,0.119,0.104,0.195,0.135c0.076,0.031,0.16,0.046,0.253,0.046c0.095,0,0.18-0.015,0.256-0.046
		c0.076-0.031,0.141-0.076,0.193-0.135c0.055-0.059,0.096-0.13,0.124-0.215C57.768,36.847,57.783,36.752,57.783,36.645z"/>
	<path fill="#6EB251" d="M60.644,36.788v0.726H60.41v-1.74h0.492c0.109,0,0.205,0.011,0.285,0.034
		c0.08,0.022,0.146,0.054,0.198,0.096c0.052,0.042,0.091,0.093,0.116,0.153c0.024,0.059,0.037,0.126,0.037,0.2
		c0,0.061-0.01,0.119-0.029,0.172c-0.02,0.054-0.047,0.101-0.084,0.144c-0.037,0.042-0.082,0.079-0.135,0.109
		c-0.053,0.03-0.113,0.052-0.18,0.067c0.028,0.017,0.055,0.042,0.077,0.075l0.507,0.69h-0.209c-0.043,0-0.074-0.017-0.094-0.05
		l-0.451-0.622c-0.015-0.019-0.029-0.033-0.046-0.042c-0.017-0.008-0.04-0.013-0.073-0.013H60.644z M60.644,36.617h0.246
		c0.068,0,0.129-0.009,0.182-0.025c0.053-0.017,0.096-0.04,0.131-0.07c0.035-0.031,0.063-0.067,0.08-0.109
		c0.018-0.042,0.026-0.088,0.026-0.14c0-0.104-0.034-0.182-0.103-0.234c-0.068-0.053-0.17-0.079-0.305-0.079h-0.258V36.617z"/>
	<path fill="#6EB251" d="M65.419,37.514h-0.182c-0.021,0-0.039-0.005-0.051-0.016c-0.014-0.011-0.023-0.024-0.029-0.04l-0.163-0.42
		h-0.78l-0.163,0.42c-0.005,0.015-0.015,0.028-0.028,0.039c-0.015,0.011-0.031,0.017-0.051,0.017H63.79l0.695-1.74h0.239
		L65.419,37.514z M64.28,36.868h0.649l-0.273-0.708c-0.018-0.043-0.035-0.098-0.052-0.164c-0.009,0.033-0.019,0.063-0.026,0.091
		c-0.009,0.028-0.017,0.052-0.025,0.073L64.28,36.868z"/>
	<path fill="#6EB251" d="M70.466,37.514H70.23v-1.74h0.236V37.514z"/>
	<path fill="#6EB251" d="M73.139,35.782c0.011,0.005,0.022,0.016,0.034,0.032l1.008,1.311c-0.002-0.021-0.004-0.041-0.005-0.061
		c-0.001-0.02-0.001-0.039-0.001-0.058v-1.232h0.207v1.74h-0.119c-0.019,0-0.035-0.003-0.047-0.01
		c-0.013-0.006-0.025-0.018-0.037-0.033l-1.006-1.31c0.001,0.021,0.002,0.04,0.003,0.06c0.001,0.02,0.001,0.038,0.001,0.054v1.239
		h-0.206v-1.74h0.122C73.113,35.774,73.128,35.777,73.139,35.782z"/>
	<path fill="#6EB251" d="M77.732,36.947c0.008,0.022,0.017,0.043,0.025,0.065c0.008-0.023,0.016-0.045,0.024-0.065
		c0.009-0.021,0.02-0.042,0.03-0.063l0.59-1.07c0.01-0.019,0.021-0.03,0.032-0.034c0.011-0.003,0.027-0.006,0.048-0.006h0.174v1.74
		H78.45v-1.278c0-0.017,0.001-0.035,0.001-0.055c0.001-0.02,0.002-0.04,0.004-0.059l-0.596,1.087
		c-0.021,0.037-0.049,0.055-0.086,0.055H77.74c-0.037,0-0.064-0.018-0.085-0.055l-0.61-1.091c0.003,0.021,0.006,0.042,0.006,0.062
		c0.002,0.02,0.002,0.039,0.002,0.056v1.278h-0.206v-1.74h0.174c0.021,0,0.036,0.002,0.048,0.006
		c0.012,0.004,0.022,0.016,0.033,0.034l0.602,1.071C77.712,36.905,77.723,36.925,77.732,36.947z"/>
	<path fill="#6EB251" d="M82.735,36.645c0,0.13-0.021,0.25-0.062,0.359c-0.041,0.108-0.1,0.202-0.176,0.281
		c-0.074,0.079-0.165,0.14-0.271,0.183c-0.105,0.044-0.222,0.065-0.35,0.065c-0.128,0-0.244-0.021-0.35-0.065
		c-0.105-0.043-0.195-0.104-0.27-0.183c-0.075-0.079-0.134-0.172-0.175-0.281c-0.041-0.109-0.063-0.229-0.063-0.359
		c0-0.13,0.021-0.25,0.063-0.359c0.041-0.109,0.1-0.203,0.175-0.281c0.075-0.079,0.165-0.141,0.27-0.185
		c0.106-0.043,0.222-0.065,0.35-0.065c0.128,0,0.244,0.022,0.35,0.065c0.106,0.044,0.197,0.105,0.271,0.185
		c0.076,0.079,0.135,0.172,0.176,0.281C82.714,36.395,82.735,36.515,82.735,36.645z M82.494,36.645c0-0.107-0.015-0.203-0.044-0.288
		c-0.029-0.085-0.071-0.157-0.124-0.216c-0.053-0.059-0.118-0.104-0.193-0.135c-0.076-0.031-0.162-0.047-0.256-0.047
		c-0.094,0-0.178,0.016-0.253,0.047c-0.077,0.032-0.142,0.077-0.195,0.135c-0.054,0.059-0.096,0.131-0.124,0.216
		c-0.029,0.085-0.045,0.181-0.045,0.288c0,0.107,0.016,0.202,0.045,0.287c0.028,0.084,0.07,0.156,0.124,0.215
		c0.054,0.059,0.118,0.104,0.195,0.135c0.075,0.031,0.159,0.046,0.253,0.046c0.094,0,0.18-0.015,0.256-0.046
		c0.075-0.031,0.141-0.076,0.193-0.135c0.053-0.059,0.095-0.13,0.124-0.215C82.479,36.847,82.494,36.752,82.494,36.645z"/>
	<path fill="#6EB251" d="M85.095,37.514v-1.74h0.555c0.107,0,0.199,0.011,0.277,0.032c0.077,0.021,0.141,0.051,0.189,0.09
		c0.051,0.039,0.088,0.086,0.111,0.143c0.023,0.056,0.035,0.12,0.035,0.19c0,0.043-0.006,0.084-0.02,0.124
		c-0.014,0.04-0.033,0.076-0.061,0.11c-0.027,0.034-0.061,0.064-0.102,0.091c-0.041,0.026-0.09,0.048-0.145,0.065
		c0.127,0.025,0.223,0.07,0.287,0.137c0.065,0.067,0.098,0.154,0.098,0.263c0,0.074-0.014,0.141-0.041,0.201
		c-0.026,0.061-0.066,0.113-0.118,0.157c-0.053,0.044-0.116,0.078-0.192,0.101c-0.076,0.024-0.162,0.036-0.259,0.036H85.095z
		 M85.331,36.554h0.311c0.066,0,0.124-0.008,0.172-0.022c0.049-0.015,0.09-0.035,0.121-0.061c0.032-0.026,0.057-0.057,0.071-0.094
		c0.015-0.037,0.023-0.077,0.023-0.121c0-0.103-0.032-0.177-0.093-0.225c-0.062-0.047-0.157-0.071-0.287-0.071h-0.318V36.554z
		 M85.331,36.722v0.605h0.376c0.067,0,0.125-0.007,0.173-0.023c0.049-0.016,0.088-0.037,0.119-0.065
		c0.031-0.028,0.054-0.061,0.068-0.1c0.016-0.039,0.022-0.081,0.022-0.126c0-0.09-0.032-0.161-0.096-0.213
		c-0.063-0.052-0.159-0.078-0.288-0.078H85.331z"/>
	<path fill="#6EB251" d="M88.986,37.514h-0.236v-1.74h0.236V37.514z"/>
	<path fill="#6EB251" d="M91.726,37.316h0.753v0.198h-0.988v-1.74h0.235V37.316z"/>
	<path fill="#6EB251" d="M95.057,37.514h-0.235v-1.74h0.235V37.514z"/>
	<path fill="#6EB251" d="M98.994,37.514h-0.182c-0.021,0-0.038-0.005-0.051-0.016c-0.014-0.011-0.023-0.024-0.029-0.04l-0.162-0.42
		h-0.781l-0.162,0.42c-0.006,0.015-0.016,0.028-0.029,0.039c-0.014,0.011-0.031,0.017-0.052,0.017h-0.183l0.696-1.74h0.239
		L98.994,37.514z M97.854,36.868h0.649l-0.273-0.708c-0.018-0.043-0.035-0.098-0.052-0.164c-0.009,0.033-0.018,0.063-0.026,0.091
		c-0.008,0.028-0.017,0.052-0.024,0.073L97.854,36.868z"/>
	<path fill="#6EB251" d="M101.511,36.788v0.726h-0.234v-1.74h0.492c0.109,0,0.205,0.011,0.285,0.034
		c0.08,0.022,0.146,0.054,0.198,0.096c0.053,0.042,0.091,0.093,0.116,0.153c0.025,0.059,0.037,0.126,0.037,0.2
		c0,0.061-0.01,0.119-0.028,0.172c-0.02,0.054-0.048,0.101-0.085,0.144c-0.036,0.042-0.082,0.079-0.135,0.109
		c-0.053,0.03-0.113,0.052-0.18,0.067c0.029,0.017,0.055,0.042,0.078,0.075l0.506,0.69h-0.208c-0.043,0-0.074-0.017-0.095-0.05
		l-0.451-0.622c-0.014-0.019-0.029-0.033-0.045-0.042c-0.017-0.008-0.041-0.013-0.073-0.013H101.511z M101.511,36.617h0.247
		c0.068,0,0.128-0.009,0.181-0.025c0.053-0.017,0.097-0.04,0.132-0.07c0.035-0.031,0.062-0.067,0.079-0.109
		c0.018-0.042,0.027-0.088,0.027-0.14c0-0.104-0.035-0.182-0.104-0.234c-0.068-0.053-0.17-0.079-0.305-0.079h-0.258V36.617z"/>
	<path fill="#6EB251" d="M105.135,37.514H104.9v-1.74h0.235V37.514z"/>
	<path fill="#6EB251" d="M109.072,37.514h-0.182c-0.021,0-0.039-0.005-0.051-0.016c-0.014-0.011-0.023-0.024-0.029-0.04l-0.163-0.42
		h-0.78l-0.163,0.42c-0.005,0.015-0.015,0.028-0.029,0.039c-0.014,0.011-0.03,0.017-0.051,0.017h-0.183l0.696-1.74h0.239
		L109.072,37.514z M107.932,36.868h0.649l-0.273-0.708c-0.018-0.043-0.035-0.098-0.052-0.164c-0.009,0.033-0.019,0.063-0.026,0.091
		c-0.008,0.028-0.017,0.052-0.025,0.073L107.932,36.868z"/>
</g>
<g>
	<path fill="#50B848" d="M26.741,14.324c0.86,0,1.644,0.135,2.351,0.405c0.707,0.269,1.315,0.656,1.822,1.159
		c0.506,0.503,0.9,1.114,1.181,1.832c0.28,0.718,0.421,1.526,0.421,2.423c0,0.904-0.141,1.719-0.421,2.444
		c-0.28,0.726-0.675,1.342-1.181,1.848c-0.508,0.507-1.115,0.897-1.822,1.17c-0.707,0.274-1.49,0.41-2.351,0.41
		c-0.868,0-1.657-0.137-2.368-0.41c-0.711-0.273-1.323-0.663-1.838-1.17c-0.514-0.506-0.911-1.123-1.191-1.848
		c-0.281-0.725-0.422-1.54-0.422-2.444c0-0.897,0.141-1.705,0.422-2.423c0.28-0.718,0.678-1.329,1.191-1.832
		c0.515-0.502,1.127-0.89,1.838-1.159C25.084,14.458,25.873,14.324,26.741,14.324z M26.741,23.5c0.779,0,1.354-0.275,1.722-0.826
		c0.368-0.55,0.553-1.387,0.553-2.51c0-1.122-0.184-1.957-0.553-2.504c-0.367-0.547-0.942-0.821-1.722-0.821
		c-0.803,0-1.39,0.274-1.761,0.821c-0.373,0.547-0.559,1.381-0.559,2.504c0,1.123,0.186,1.96,0.559,2.51
		C25.351,23.224,25.938,23.5,26.741,23.5z"/>
	<path fill="#50B848" d="M37.804,28.782c-0.102,0.226-0.227,0.392-0.372,0.498c-0.146,0.106-0.379,0.159-0.7,0.159h-2.537
		l2.188-4.594l-4.527-10.346h2.996c0.262,0,0.467,0.059,0.612,0.175c0.146,0.117,0.249,0.256,0.307,0.415l1.859,4.889
		c0.175,0.452,0.317,0.904,0.427,1.356c0.072-0.233,0.152-0.463,0.24-0.689c0.087-0.226,0.172-0.456,0.252-0.689l1.684-4.867
		c0.059-0.167,0.174-0.308,0.345-0.421c0.171-0.113,0.355-0.169,0.553-0.169h2.733L37.804,28.782z"/>
	<path fill="#50B848" d="M58.199,9.467V25.84h-3.391V9.467H58.199z"/>
	<path fill="#50B848" d="M53.3,16.959c-0.205-0.546-0.498-1.019-0.881-1.416c-0.383-0.397-0.85-0.707-1.4-0.93
		c-0.551-0.222-1.168-0.334-1.854-0.334c-0.955,0-1.85,0.148-2.686,0.443c-0.834,0.295-1.595,0.746-2.28,1.351l0.612,1.061
		c0.011,0.018,0.025,0.032,0.036,0.048l0.589,1.011c1.047-0.599,2.037-1.321,3.291-1.321c0.503,0,0.891,0.148,1.165,0.447
		c0.272,0.298,0.41,0.782,0.41,1.452v0.486c-1.298,0-2.374,0.117-3.227,0.351c-0.853,0.234-1.53,0.524-2.033,0.872
		c-0.504,0.348-0.857,0.733-1.062,1.158c-0.204,0.424-0.306,0.837-0.306,1.24c0,0.512,0.08,0.964,0.24,1.355
		c0.16,0.392,0.389,0.719,0.684,0.982c0.295,0.264,0.654,0.463,1.077,0.598c0.423,0.135,0.894,0.203,1.411,0.203
		c0.387,0,0.738-0.031,1.055-0.093c0.318-0.062,0.617-0.157,0.897-0.285c0.28-0.127,0.552-0.283,0.815-0.465
		c0.262-0.182,0.535-0.393,0.819-0.634l0.241,0.624c0.109,0.277,0.246,0.459,0.41,0.547c0.164,0.087,0.406,0.131,0.726,0.131h1.553
		v-7.087C53.605,18.104,53.503,17.506,53.3,16.959z M50.303,22.8c-0.336,0.343-0.667,0.59-0.995,0.744
		c-0.328,0.153-0.711,0.23-1.148,0.23c-0.408,0-0.719-0.079-0.93-0.237c-0.212-0.158-0.318-0.432-0.318-0.822
		c0-0.199,0.05-0.383,0.148-0.552c0.099-0.169,0.275-0.319,0.53-0.452c0.255-0.132,0.603-0.243,1.039-0.331
		c0.438-0.087,0.995-0.132,1.674-0.132V22.8z"/>
	<g>
		<polygon fill="#50B848" points="72.723,16.11 66.249,16.11 66.249,9.905 62.529,9.905 62.529,25.84 66.249,25.84 66.249,19.524 
			72.723,19.524 72.723,25.84 76.442,25.84 76.442,9.905 72.723,9.905 		"/>
		<path fill="#50B848" d="M87.522,15.887c-0.507-0.502-1.114-0.89-1.821-1.159c-0.707-0.27-1.491-0.405-2.352-0.405
			c-0.867,0-1.656,0.135-2.367,0.405c-0.711,0.269-1.324,0.656-1.838,1.159c-0.514,0.503-0.912,1.114-1.191,1.832
			c-0.281,0.718-0.422,1.526-0.422,2.423c0,0.904,0.141,1.719,0.422,2.444c0.279,0.726,0.678,1.342,1.191,1.848
			c0.514,0.507,1.127,0.897,1.838,1.17c0.711,0.274,1.5,0.41,2.367,0.41c0.86,0,1.645-0.137,2.352-0.41
			c0.707-0.273,1.314-0.663,1.821-1.17c0.507-0.506,0.9-1.123,1.181-1.848c0.281-0.725,0.422-1.54,0.422-2.444
			c0-0.897-0.141-1.705-0.422-2.423C88.422,17.001,88.029,16.391,87.522,15.887z M85.072,22.674
			c-0.368,0.55-0.942,0.826-1.723,0.826c-0.802,0-1.389-0.275-1.762-0.826c-0.371-0.55-0.557-1.387-0.557-2.51
			c0-1.122,0.186-1.957,0.557-2.504c0.373-0.547,0.96-0.821,1.762-0.821c0.78,0,1.354,0.274,1.723,0.821
			c0.369,0.547,0.553,1.381,0.553,2.504C85.624,21.287,85.441,22.124,85.072,22.674z"/>
		<path fill="#50B848" d="M105.607,15.456c-0.34-0.368-0.76-0.649-1.264-0.842c-0.503-0.193-1.079-0.29-1.728-0.29
			c-0.351,0-0.702,0.036-1.056,0.109c-0.354,0.073-0.689,0.186-1.006,0.339c-0.318,0.153-0.613,0.353-0.887,0.602
			c-0.273,0.248-0.504,0.547-0.693,0.896c-0.234-0.59-0.574-1.063-1.023-1.416c-0.449-0.354-1.016-0.53-1.701-0.53
			c-0.328,0-0.629,0.035-0.901,0.104c-0.274,0.069-0.529,0.164-0.767,0.284c-0.236,0.12-0.457,0.262-0.66,0.426
			c-0.205,0.164-0.402,0.344-0.592,0.542l-0.186-0.612c-0.059-0.19-0.158-0.332-0.301-0.427c-0.143-0.095-0.319-0.142-0.531-0.142
			h-2.1V25.84h3.391v-8.203c0.24-0.233,0.498-0.419,0.771-0.558c0.273-0.139,0.563-0.207,0.869-0.207
			c0.496,0,0.871,0.131,1.127,0.394c0.255,0.263,0.383,0.718,0.383,1.367v7.208h3.391v-7.208c0-0.569,0.151-1.004,0.453-1.307
			c0.303-0.303,0.684-0.454,1.144-0.454c1.006,0,1.509,0.587,1.509,1.761v7.208h3.391v-7.208c0-0.678-0.087-1.285-0.262-1.821
			C106.203,16.275,105.946,15.824,105.607,15.456z"/>
		<path fill="#50B848" d="M117.841,20.722c0.098-0.037,0.176-0.102,0.234-0.197c0.059-0.095,0.098-0.222,0.121-0.383
			c0.021-0.16,0.032-0.368,0.032-0.623c0-0.816-0.126-1.548-0.378-2.192c-0.251-0.646-0.602-1.191-1.05-1.635
			c-0.448-0.445-0.983-0.784-1.608-1.018c-0.624-0.233-1.311-0.35-2.061-0.35c-0.868,0-1.647,0.149-2.335,0.448
			c-0.689,0.299-1.276,0.704-1.761,1.214c-0.485,0.511-0.857,1.105-1.115,1.783c-0.26,0.678-0.389,1.396-0.389,2.155
			c0,1.006,0.15,1.888,0.453,2.646c0.303,0.759,0.715,1.393,1.236,1.903c0.521,0.511,1.131,0.895,1.826,1.154
			c0.696,0.259,1.441,0.388,2.237,0.388c0.386,0,0.793-0.027,1.22-0.082c0.426-0.055,0.853-0.153,1.279-0.296
			c0.426-0.142,0.842-0.339,1.246-0.59c0.405-0.252,0.782-0.578,1.133-0.979l-0.984-1.214c-0.002-0.002-0.003-0.002-0.004-0.004
			l-0.57-0.703c0,0-0.289,0.332-0.771,0.63c-0.146,0.075-0.299,0.153-0.465,0.241c-0.223,0.117-0.477,0.222-0.76,0.317
			c-0.284,0.095-0.624,0.143-1.018,0.143c-0.736,0-1.338-0.213-1.805-0.64c-0.467-0.426-0.754-1.114-0.863-2.062h6.54
			C117.617,20.776,117.742,20.758,117.841,20.722z M110.956,18.808c0.115-0.693,0.356-1.223,0.721-1.591
			c0.365-0.368,0.871-0.552,1.521-0.552c0.364,0,0.675,0.062,0.93,0.186c0.255,0.124,0.461,0.287,0.618,0.487
			c0.156,0.201,0.27,0.428,0.338,0.684c0.07,0.255,0.105,0.517,0.105,0.787H110.956z"/>
	</g>
	<path fill="#50B848" d="M18.714,21.3l-1.403-2.336c0.329-0.158,0.632-0.34,0.904-0.55c0.397-0.307,0.733-0.655,1.007-1.044
		c0.272-0.39,0.479-0.815,0.617-1.274c0.139-0.46,0.208-0.948,0.208-1.466c0-0.678-0.117-1.305-0.351-1.881
		c-0.233-0.576-0.606-1.076-1.121-1.498c-0.514-0.423-1.177-0.753-1.99-0.99c-0.813-0.237-1.796-0.355-2.947-0.355H8.455V25.84
		h3.696v-5.895h0.94c0.285,0,0.505,0.044,0.662,0.131c0.156,0.087,0.293,0.233,0.409,0.438l2.012,3.515l0,0l1.026,1.811h0.943h0.266
		h3.081L18.714,21.3z M14.923,17.206c-0.353,0.127-0.781,0.191-1.285,0.191h-1.487v-4.725h1.487c0.955,0,1.66,0.197,2.116,0.591
		c0.455,0.394,0.684,0.941,0.684,1.641c0,0.35-0.051,0.676-0.153,0.979c-0.102,0.303-0.266,0.567-0.492,0.793
		C15.567,16.901,15.277,17.078,14.923,17.206z"/>
</g>
</svg>
